<?xml version="1.0" encoding="UTF-8"?><svg id="uuid-3ddc7243-9ffe-43c5-a044-ba65406e9235" xmlns="http://www.w3.org/2000/svg" viewBox="0 0 600 400"><defs><style>.uuid-82a9494e-2879-4166-b778-87fd756c9476{fill:#6d6d6d;}.uuid-82a9494e-2879-4166-b778-87fd756c9476,.uuid-e2d01b13-2b13-46a1-80e6-6cb1d35e1827,.uuid-cb26f1bf-027a-4d86-8cca-a40af627e054,.uuid-d7b30361-582c-4281-966a-16312f4b43a4,.uuid-3012ca1d-85f8-4530-8a0a-242b4737e3ef,.uuid-7058eab8-52d9-4fe8-9528-465a9c0ff8a3,.uuid-f55933f8-2efe-4eff-b617-49021195c873,.uuid-3bb535a9-b4ce-43c7-a5f8-18ffcad91779{stroke-width:0px;}.uuid-e2d01b13-2b13-46a1-80e6-6cb1d35e1827{fill:#262626;}.uuid-cb26f1bf-027a-4d86-8cca-a40af627e054{fill:#c6c6c6;}.uuid-d7b30361-582c-4281-966a-16312f4b43a4{fill:#00a651;}.uuid-3012ca1d-85f8-4530-8a0a-242b4737e3ef{fill:#fff200;}.uuid-7058eab8-52d9-4fe8-9528-465a9c0ff8a3{fill:#fff;}.uuid-f55933f8-2efe-4eff-b617-49021195c873{fill:#ed1c24;}.uuid-3bb535a9-b4ce-43c7-a5f8-18ffcad91779{fill:#e8e8e8;}</style></defs><path class="uuid-7058eab8-52d9-4fe8-9528-465a9c0ff8a3" d="M10.05,397c-3.89,0-7.05-3.16-7.05-7.05V47.9h594v342.03c0,3.9-3.17,7.08-7.08,7.08H10.05Z"/><path class="uuid-e2d01b13-2b13-46a1-80e6-6cb1d35e1827" d="M594,50.9v339.03c0,2.25-1.83,4.08-4.08,4.08H10.05c-2.23,0-4.05-1.82-4.05-4.05V50.9h588M600,44.9H0v345.05c0,5.55,4.5,10.05,10.05,10.05h579.87c5.57,0,10.08-4.51,10.08-10.08V44.9h0Z"/><path class="uuid-e2d01b13-2b13-46a1-80e6-6cb1d35e1827" d="M9.43,0h581.14c5.2,0,9.43,4.22,9.43,9.43v35.47H0V9.43C0,4.22,4.22,0,9.43,0Z"/><circle class="uuid-f55933f8-2efe-4eff-b617-49021195c873" cx="22.22" cy="22.45" r="6.43"/><circle class="uuid-3012ca1d-85f8-4530-8a0a-242b4737e3ef" cx="43.21" cy="22.45" r="6.43"/><circle class="uuid-d7b30361-582c-4281-966a-16312f4b43a4" cx="64.19" cy="22.45" r="6.43"/><rect class="uuid-82a9494e-2879-4166-b778-87fd756c9476" x="146.18" y="11.58" width="414.71" height="21.73" rx="10.31" ry="10.31"/><circle class="uuid-82a9494e-2879-4166-b778-87fd756c9476" cx="94.36" cy="22.45" r="8.63"/><path class="uuid-cb26f1bf-027a-4d86-8cca-a40af627e054" d="M90.61,22.05c-.22.22-.22.57,0,.79l2.8,2.8c.22.22.57.22.79,0s.22-.57,0-.79l-1.85-1.84h5.37c.31,0,.56-.25.56-.56s-.25-.56-.56-.56h-5.37l1.84-1.84c.22-.22.22-.57,0-.79s-.57-.22-.79,0l-2.8,2.8h0Z"/><circle class="uuid-82a9494e-2879-4166-b778-87fd756c9476" cx="122.43" cy="22.45" r="8.63"/><path class="uuid-cb26f1bf-027a-4d86-8cca-a40af627e054" d="M126.28,22.85c.22-.22.22-.59,0-.81l-2.87-2.87c-.22-.22-.59-.22-.81,0s-.22.59,0,.81l1.89,1.89h-5.5c-.32,0-.57.26-.57.57s.26.57.57.57h5.5l-1.89,1.89c-.22.22-.22.59,0,.81s.59.22.81,0l2.87-2.87h0Z"/><path class="uuid-cb26f1bf-027a-4d86-8cca-a40af627e054" d="M161.44,21.4c0,1-.33,1.93-.87,2.68l2.77,2.77c.27.27.27.72,0,.99-.27.27-.72.27-.99,0l-2.77-2.77c-.75.55-1.68.87-2.68.87-2.51,0-4.54-2.03-4.54-4.54s2.03-4.54,4.54-4.54,4.54,2.03,4.54,4.54ZM156.9,24.54c1.74,0,3.15-1.41,3.15-3.15s-1.41-3.15-3.15-3.15-3.15,1.41-3.15,3.15,1.41,3.15,3.15,3.15Z"/><path class="uuid-cb26f1bf-027a-4d86-8cca-a40af627e054" d="M579.58,27.02c-1.36,0-2.46,1.1-2.46,2.46s1.1,2.46,2.46,2.46,2.46-1.1,2.46-2.46-1.1-2.46-2.46-2.46ZM579.58,19.99c-1.36,0-2.46,1.1-2.46,2.46s1.1,2.46,2.46,2.46,2.46-1.1,2.46-2.46-1.1-2.46-2.46-2.46ZM582.04,15.41c0-1.36-1.1-2.46-2.46-2.46s-2.46,1.1-2.46,2.46,1.1,2.46,2.46,2.46,2.46-1.1,2.46-2.46Z"/><rect class="uuid-3bb535a9-b4ce-43c7-a5f8-18ffcad91779" x="36.78" y="82.76" width="524.11" height="129.97"/><rect class="uuid-3bb535a9-b4ce-43c7-a5f8-18ffcad91779" x="36.78" y="231.26" width="166.43" height="130.61"/><rect class="uuid-3bb535a9-b4ce-43c7-a5f8-18ffcad91779" x="224.34" y="231.26" width="336.56" height="130.61"/></svg>