<svg xmlns="http://www.w3.org/2000/svg" width="150" height="150" viewBox="0 0 150 150"><rect width="100%" height="100%" fill="#DDDDDD"/><path fill="#999999" d="M35.535 59.64v24.58h-4.59V59.64h4.59Zm9.02 24.58h-4.19V66.78h2.56q.82 0 1.07.76l.28 1.29q.45-.51.96-.93.5-.43 1.07-.73.57-.31 1.22-.49.66-.17 1.44-.17 1.65 0 2.71.89t1.59 2.37q.41-.87 1.02-1.49.61-.62 1.34-1.01.73-.39 1.56-.58.82-.18 1.65-.18 1.45 0 2.57.44 1.12.44 1.89 1.29.76.85 1.16 2.07.4 1.23.4 2.81v11.1h-4.2v-11.1q0-1.67-.73-2.51-.73-.84-2.14-.84-.65 0-1.2.22-.55.22-.97.64-.41.41-.65 1.04-.24.63-.24 1.45v11.1h-4.22v-11.1q0-1.75-.7-2.55-.71-.8-2.07-.8-.91 0-1.71.45-.79.45-1.47 1.23v12.77Zm33.49-4.5v-2.95q-1.81.09-3.06.32-1.24.23-1.98.58-.75.36-1.08.84-.32.47-.32 1.03 0 1.11.66 1.59.65.47 1.7.47 1.3 0 2.24-.47.94-.46 1.84-1.41Zm-8.87-9.17-.75-1.34q3.01-2.76 7.24-2.76 1.53 0 2.74.51 1.21.5 2.04 1.39.83.89 1.27 2.13.43 1.24.43 2.72v11.02h-1.9q-.6 0-.92-.18-.32-.18-.51-.72l-.37-1.26q-.67.6-1.3 1.05-.63.45-1.31.75-.68.31-1.45.47-.77.16-1.71.16-1.1 0-2.04-.3-.93-.29-1.61-.89-.68-.59-1.06-1.48-.37-.88-.37-2.05 0-.67.22-1.32.22-.66.72-1.25.5-.6 1.3-1.12.8-.53 1.97-.92 1.16-.39 2.71-.64t3.53-.3V73.2q0-1.75-.74-2.59-.75-.84-2.16-.84-1.02 0-1.69.24-.68.24-1.19.53l-.92.54q-.42.24-.93.24-.44 0-.75-.23-.3-.23-.49-.54Zm23.29 4.52q.78 0 1.36-.21.58-.21.96-.59.38-.37.58-.9.19-.52.19-1.15 0-1.29-.77-2.05-.77-.76-2.32-.76-1.55 0-2.32.76-.77.76-.77 2.05 0 .61.19 1.14.2.52.58.91.38.38.97.59.59.21 1.35.21Zm4.74 9.93q0-.51-.3-.83-.31-.32-.84-.5-.52-.18-1.23-.27-.7-.08-1.49-.12-.79-.05-1.64-.08-.84-.03-1.64-.14-.69.39-1.13.92-.43.53-.43 1.23 0 .46.23.85.23.4.73.69.5.29 1.3.45.8.17 1.96.17 1.17 0 2.02-.18.85-.18 1.4-.5.55-.31.81-.74.25-.44.25-.95Zm-.83-17.63h5.02v1.57q0 .74-.91.91l-1.56.29q.36.9.36 1.98 0 1.29-.52 2.33-.52 1.05-1.44 1.78-.92.73-2.16 1.13-1.25.4-2.7.4-.51 0-.99-.05-.47-.05-.93-.14-.82.5-.82 1.11 0 .52.49.77.48.25 1.28.35.8.1 1.82.13 1.02.02 2.09.11 1.07.08 2.09.3 1.02.21 1.82.67.8.46 1.29 1.25.48.79.48 2.03 0 1.15-.57 2.24-.57 1.09-1.65 1.94-1.08.85-2.65 1.37-1.57.52-3.58.52-1.97 0-3.43-.39-1.47-.38-2.43-1.02-.97-.63-1.45-1.47-.48-.83-.48-1.73 0-1.22.74-2.05.74-.82 2.04-1.32-.7-.35-1.11-.95-.41-.59-.41-1.56 0-.39.15-.81.14-.42.42-.82.28-.41.71-.78.42-.36 1-.65-1.33-.72-2.08-1.91-.76-1.19-.76-2.78 0-1.3.52-2.34.52-1.05 1.45-1.79.92-.74 2.19-1.13 1.26-.39 2.76-.39 1.12 0 2.11.23.98.23 1.8.67Zm10.98 6.12h7.92q0-.81-.22-1.54-.23-.72-.69-1.26-.46-.55-1.17-.86-.7-.32-1.64-.32-1.82 0-2.86 1.04-1.05 1.04-1.34 2.94Zm10.71 2.54h-10.79q.1 1.34.47 2.32.38.97.99 1.61.61.64 1.45.95.84.32 1.86.32t1.76-.24q.74-.24 1.3-.53.55-.29.97-.52.41-.24.8-.24.53 0 .78.39l1.21 1.53q-.7.81-1.56 1.37-.87.55-1.81.88-.95.33-1.92.47-.98.14-1.9.14-1.82 0-3.38-.61-1.57-.6-2.72-1.78-1.16-1.19-1.82-2.93-.66-1.74-.66-4.04 0-1.78.57-3.35.58-1.58 1.66-2.74 1.08-1.16 2.64-1.84 1.55-.68 3.51-.68 1.65 0 3.04.52 1.39.53 2.4 1.54 1 1.01 1.57 2.48.57 1.47.57 3.36 0 .95-.21 1.28-.2.34-.78.34Z"/></svg>